<svg xmlns="http://www.w3.org/2000/svg" xmlns:xlink="http://www.w3.org/1999/xlink" width="500" zoomAndPan="magnify" viewBox="0 0 375 374.999991" height="500" preserveAspectRatio="xMidYMid meet" version="1.0"><defs><g/></defs><g fill="#FFFFFF" fill-opacity="1"><g transform="translate(12.426288, 172.320742)"><g><path d="M 3.59375 0 L 3.59375 -41.375 L 19.921875 -41.375 C 24.617188 -41.375 28.265625 -40.144531 30.859375 -37.6875 C 33.453125 -35.238281 34.75 -31.960938 34.75 -27.859375 C 34.75 -25.023438 34.117188 -22.601562 32.859375 -20.59375 C 31.597656 -18.59375 29.789062 -17.085938 27.4375 -16.078125 L 36.21875 0 L 26.5625 0 L 18.734375 -14.671875 L 12.34375 -14.671875 L 12.34375 0 Z M 12.34375 -21.703125 L 18.28125 -21.703125 C 23.25 -21.703125 25.734375 -23.753906 25.734375 -27.859375 C 25.734375 -32.097656 23.238281 -34.21875 18.25 -34.21875 L 12.34375 -34.21875 Z M 12.34375 -21.703125 "/></g></g></g><g fill="#FFFFFF" fill-opacity="1"><g transform="translate(55.956549, 172.320742)"><g><path d="M 3.59375 0 L 3.59375 -41.375 L 31.46875 -41.375 L 31.46875 -34.15625 L 12.34375 -34.15625 L 12.34375 -24.296875 L 30.046875 -24.296875 L 30.046875 -17.09375 L 12.34375 -17.09375 L 12.34375 -7.21875 L 31.5625 -7.21875 L 31.5625 0 Z M 3.59375 0 "/></g></g></g><g fill="#FFFFFF" fill-opacity="1"><g transform="translate(97.002229, 172.320742)"><g><path d="M 3.59375 0 L 3.59375 -41.375 L 19.921875 -41.375 C 23.054688 -41.375 25.726562 -40.773438 27.9375 -39.578125 C 30.144531 -38.390625 31.832031 -36.738281 33 -34.625 C 34.164062 -32.519531 34.75 -30.097656 34.75 -27.359375 C 34.75 -24.609375 34.15625 -22.1875 32.96875 -20.09375 C 31.78125 -18 30.066406 -16.363281 27.828125 -15.1875 C 25.585938 -14.007812 22.878906 -13.421875 19.703125 -13.421875 L 12.34375 -13.421875 L 12.34375 0 Z M 12.34375 -20.421875 L 18.28125 -20.421875 C 20.789062 -20.421875 22.660156 -21.0625 23.890625 -22.34375 C 25.117188 -23.632812 25.734375 -25.304688 25.734375 -27.359375 C 25.734375 -29.421875 25.117188 -31.078125 23.890625 -32.328125 C 22.660156 -33.585938 20.78125 -34.21875 18.25 -34.21875 L 12.34375 -34.21875 Z M 12.34375 -20.421875 "/></g></g></g><g fill="#FFFFFF" fill-opacity="1"><g transform="translate(140.047701, 172.320742)"><g><path d="M 41.625 -20.6875 C 41.625 -16.175781 40.769531 -12.335938 39.0625 -9.171875 C 37.351562 -6.003906 35.035156 -3.585938 32.109375 -1.921875 C 29.191406 -0.265625 25.90625 0.5625 22.25 0.5625 C 18.570312 0.5625 15.269531 -0.269531 12.34375 -1.9375 C 9.414062 -3.601562 7.101562 -6.019531 5.40625 -9.1875 C 3.71875 -12.363281 2.875 -16.195312 2.875 -20.6875 C 2.875 -25.195312 3.71875 -29.035156 5.40625 -32.203125 C 7.101562 -35.367188 9.414062 -37.78125 12.34375 -39.4375 C 15.269531 -41.101562 18.570312 -41.9375 22.25 -41.9375 C 25.90625 -41.9375 29.191406 -41.101562 32.109375 -39.4375 C 35.035156 -37.78125 37.351562 -35.367188 39.0625 -32.203125 C 40.769531 -29.035156 41.625 -25.195312 41.625 -20.6875 Z M 32.75 -20.6875 C 32.75 -25.082031 31.789062 -28.429688 29.875 -30.734375 C 27.96875 -33.046875 25.425781 -34.203125 22.25 -34.203125 C 19.0625 -34.203125 16.507812 -33.046875 14.59375 -30.734375 C 12.6875 -28.429688 11.734375 -25.082031 11.734375 -20.6875 C 11.734375 -16.3125 12.6875 -12.960938 14.59375 -10.640625 C 16.507812 -8.328125 19.0625 -7.171875 22.25 -7.171875 C 25.425781 -7.171875 27.96875 -8.328125 29.875 -10.640625 C 31.789062 -12.960938 32.75 -16.3125 32.75 -20.6875 Z M 32.75 -20.6875 "/></g></g></g><g fill="#FFFFFF" fill-opacity="1"><g transform="translate(190.728728, 172.320742)"><g><path d="M 3.59375 0 L 3.59375 -41.375 L 19.921875 -41.375 C 24.617188 -41.375 28.265625 -40.144531 30.859375 -37.6875 C 33.453125 -35.238281 34.75 -31.960938 34.75 -27.859375 C 34.75 -25.023438 34.117188 -22.601562 32.859375 -20.59375 C 31.597656 -18.59375 29.789062 -17.085938 27.4375 -16.078125 L 36.21875 0 L 26.5625 0 L 18.734375 -14.671875 L 12.34375 -14.671875 L 12.34375 0 Z M 12.34375 -21.703125 L 18.28125 -21.703125 C 23.25 -21.703125 25.734375 -23.753906 25.734375 -27.859375 C 25.734375 -32.097656 23.238281 -34.21875 18.25 -34.21875 L 12.34375 -34.21875 Z M 12.34375 -21.703125 "/></g></g></g><g fill="#FFFFFF" fill-opacity="1"><g transform="translate(234.258983, 172.320742)"><g><path d="M 2.015625 -34.15625 L 2.015625 -41.375 L 36 -41.375 L 36 -34.15625 L 23.328125 -34.15625 L 23.328125 0 L 14.6875 0 L 14.6875 -34.15625 Z M 2.015625 -34.15625 "/></g></g></g><g fill="#FFFFFF" fill-opacity="1"><g transform="translate(278.476044, 172.320742)"><g/></g></g><g fill="#FFFFFF" fill-opacity="1"><g transform="translate(297.867439, 172.320742)"><g><path d="M 10.734375 0 L 1.359375 0 L 15.640625 -41.375 L 26.90625 -41.375 L 41.171875 0 L 31.796875 0 L 28.734375 -9.4375 L 13.796875 -9.4375 Z M 16.015625 -16.265625 L 26.53125 -16.265625 L 21.4375 -31.921875 L 21.109375 -31.921875 Z M 16.015625 -16.265625 "/></g></g></g><g fill="#FFFFFF" fill-opacity="1"><g transform="translate(346.609264, 172.320742)"><g><path d="M 12.34375 -41.375 L 12.34375 0 L 3.59375 0 L 3.59375 -41.375 Z M 12.34375 -41.375 "/></g></g></g><g fill="#FFFFFF" fill-opacity="1"><g transform="translate(50.131997, 206.043152)"><g><path d="M 0.40625 0 L 0.40625 -0.78125 C 0.675781 -0.9375 0.957031 -1.066406 1.25 -1.171875 C 1.550781 -1.285156 1.835938 -1.359375 2.109375 -1.390625 L 2.109375 -13.09375 C 1.835938 -13.144531 1.546875 -13.222656 1.234375 -13.328125 C 0.929688 -13.429688 0.65625 -13.550781 0.40625 -13.6875 L 0.40625 -14.484375 L 3.75 -14.484375 C 4.269531 -14.484375 4.765625 -14.503906 5.234375 -14.546875 C 5.703125 -14.585938 6.238281 -14.609375 6.84375 -14.609375 C 7.507812 -14.609375 8.148438 -14.554688 8.765625 -14.453125 C 9.390625 -14.359375 9.941406 -14.1875 10.421875 -13.9375 C 10.910156 -13.695312 11.296875 -13.347656 11.578125 -12.890625 C 11.867188 -12.441406 12.015625 -11.867188 12.015625 -11.171875 C 12.015625 -10.734375 11.9375 -10.320312 11.78125 -9.9375 C 11.625 -9.5625 11.40625 -9.226562 11.125 -8.9375 C 10.84375 -8.644531 10.507812 -8.398438 10.125 -8.203125 C 9.75 -8.015625 9.335938 -7.878906 8.890625 -7.796875 L 8.890625 -7.71875 C 9.335938 -7.664062 9.785156 -7.5625 10.234375 -7.40625 C 10.679688 -7.25 11.082031 -7.023438 11.4375 -6.734375 C 11.800781 -6.453125 12.09375 -6.09375 12.3125 -5.65625 C 12.539062 -5.21875 12.65625 -4.703125 12.65625 -4.109375 C 12.65625 -3.367188 12.488281 -2.726562 12.15625 -2.1875 C 11.832031 -1.65625 11.390625 -1.21875 10.828125 -0.875 C 10.265625 -0.53125 9.625 -0.273438 8.90625 -0.109375 C 8.195312 0.046875 7.457031 0.125 6.6875 0.125 C 6.394531 0.125 6.078125 0.113281 5.734375 0.09375 C 5.390625 0.0820312 5.039062 0.0703125 4.6875 0.0625 C 4.34375 0.0507812 4.007812 0.0351562 3.6875 0.015625 C 3.363281 0.00390625 3.09375 0 2.875 0 Z M 6.65625 -1.21875 C 7.53125 -1.21875 8.210938 -1.472656 8.703125 -1.984375 C 9.203125 -2.503906 9.453125 -3.195312 9.453125 -4.0625 C 9.453125 -4.582031 9.367188 -5.007812 9.203125 -5.34375 C 9.035156 -5.6875 8.804688 -5.957031 8.515625 -6.15625 C 8.234375 -6.351562 7.890625 -6.488281 7.484375 -6.5625 C 7.085938 -6.644531 6.65625 -6.6875 6.1875 -6.6875 L 5.09375 -6.6875 L 5.09375 -1.359375 C 5.28125 -1.316406 5.476562 -1.28125 5.6875 -1.25 C 5.90625 -1.226562 6.226562 -1.21875 6.65625 -1.21875 Z M 5.75 -8.03125 C 5.988281 -8.03125 6.222656 -8.039062 6.453125 -8.0625 C 6.691406 -8.082031 6.910156 -8.101562 7.109375 -8.125 C 7.648438 -8.351562 8.085938 -8.695312 8.421875 -9.15625 C 8.753906 -9.613281 8.921875 -10.140625 8.921875 -10.734375 C 8.921875 -11.609375 8.691406 -12.25 8.234375 -12.65625 C 7.773438 -13.0625 7.1875 -13.265625 6.46875 -13.265625 C 6.164062 -13.265625 5.90625 -13.253906 5.6875 -13.234375 C 5.46875 -13.222656 5.269531 -13.203125 5.09375 -13.171875 L 5.09375 -8.03125 Z M 5.75 -8.03125 "/></g></g></g><g fill="#FFFFFF" fill-opacity="1"><g transform="translate(73.632578, 206.043152)"><g><path d="M 9.375 -14.484375 L 14.4375 -14.484375 L 14.4375 -13.6875 C 14.226562 -13.570312 13.992188 -13.453125 13.734375 -13.328125 C 13.484375 -13.210938 13.226562 -13.132812 12.96875 -13.09375 L 8.953125 -6.0625 L 8.953125 -1.390625 C 9.234375 -1.359375 9.503906 -1.285156 9.765625 -1.171875 C 10.035156 -1.054688 10.289062 -0.925781 10.53125 -0.78125 L 10.53125 0 L 4.15625 0 L 4.15625 -0.78125 C 4.394531 -0.90625 4.65625 -1.019531 4.9375 -1.125 C 5.226562 -1.238281 5.535156 -1.328125 5.859375 -1.390625 L 5.859375 -6.046875 L 1.671875 -13.09375 C 1.359375 -13.144531 1.0625 -13.226562 0.78125 -13.34375 C 0.5 -13.457031 0.238281 -13.570312 0 -13.6875 L 0 -14.484375 L 6.78125 -14.484375 L 6.78125 -13.6875 C 6.59375 -13.582031 6.375 -13.472656 6.125 -13.359375 C 5.875 -13.253906 5.582031 -13.164062 5.25 -13.09375 L 8.21875 -7.546875 L 11.03125 -13.09375 C 10.707031 -13.164062 10.398438 -13.253906 10.109375 -13.359375 C 9.828125 -13.472656 9.582031 -13.582031 9.375 -13.6875 Z M 9.375 -14.484375 "/></g></g></g><g fill="#FFFFFF" fill-opacity="1"><g transform="translate(98.14684, 206.043152)"><g/></g></g><g fill="#FFFFFF" fill-opacity="1"><g transform="translate(113.807014, 206.043152)"><g><path d="M 5.109375 0 L 0 0 L 0 -0.78125 C 0.21875 -0.925781 0.453125 -1.046875 0.703125 -1.140625 C 0.960938 -1.242188 1.21875 -1.328125 1.46875 -1.390625 L 6.8125 -14.734375 L 8.34375 -14.734375 L 13.53125 -1.390625 C 13.800781 -1.328125 14.070312 -1.242188 14.34375 -1.140625 C 14.625 -1.046875 14.867188 -0.925781 15.078125 -0.78125 L 15.078125 0 L 8.609375 0 L 8.609375 -0.78125 C 8.867188 -0.90625 9.148438 -1.019531 9.453125 -1.125 C 9.753906 -1.238281 10.046875 -1.328125 10.328125 -1.390625 L 9.125 -4.671875 L 4.53125 -4.671875 L 3.3125 -1.390625 C 3.945312 -1.304688 4.546875 -1.101562 5.109375 -0.78125 Z M 5.03125 -6.015625 L 8.6875 -6.015625 L 7.34375 -9.96875 L 6.953125 -11.75 L 6.90625 -11.75 L 6.453125 -9.9375 Z M 5.03125 -6.015625 "/></g></g></g><g fill="#FFFFFF" fill-opacity="1"><g transform="translate(138.962557, 206.043152)"><g><path d="M 7.078125 0 L 0.625 0 L 0.625 -0.78125 C 1.175781 -1.082031 1.734375 -1.285156 2.296875 -1.390625 L 2.296875 -13.09375 C 2.015625 -13.132812 1.722656 -13.207031 1.421875 -13.3125 C 1.117188 -13.425781 0.851562 -13.550781 0.625 -13.6875 L 0.625 -14.484375 L 7.078125 -14.484375 L 7.078125 -13.6875 C 6.828125 -13.539062 6.550781 -13.414062 6.25 -13.3125 C 5.957031 -13.207031 5.675781 -13.132812 5.40625 -13.09375 L 5.40625 -1.390625 C 5.675781 -1.328125 5.957031 -1.25 6.25 -1.15625 C 6.550781 -1.0625 6.828125 -0.9375 7.078125 -0.78125 Z M 7.078125 0 "/></g></g></g><g fill="#FFFFFF" fill-opacity="1"><g transform="translate(156.732811, 206.043152)"><g/></g></g><g fill="#FFFFFF" fill-opacity="1"><g transform="translate(172.39298, 206.043152)"><g><path d="M 0.40625 0 L 0.40625 -0.78125 C 0.675781 -0.9375 0.957031 -1.066406 1.25 -1.171875 C 1.550781 -1.285156 1.835938 -1.359375 2.109375 -1.390625 L 2.109375 -13.09375 C 1.835938 -13.144531 1.546875 -13.222656 1.234375 -13.328125 C 0.929688 -13.429688 0.65625 -13.550781 0.40625 -13.6875 L 0.40625 -14.484375 L 3.75 -14.484375 C 4.269531 -14.484375 4.765625 -14.503906 5.234375 -14.546875 C 5.703125 -14.585938 6.238281 -14.609375 6.84375 -14.609375 C 7.507812 -14.609375 8.148438 -14.554688 8.765625 -14.453125 C 9.390625 -14.359375 9.941406 -14.1875 10.421875 -13.9375 C 10.910156 -13.695312 11.296875 -13.347656 11.578125 -12.890625 C 11.867188 -12.441406 12.015625 -11.867188 12.015625 -11.171875 C 12.015625 -10.734375 11.9375 -10.320312 11.78125 -9.9375 C 11.625 -9.5625 11.40625 -9.226562 11.125 -8.9375 C 10.84375 -8.644531 10.507812 -8.398438 10.125 -8.203125 C 9.75 -8.015625 9.335938 -7.878906 8.890625 -7.796875 L 8.890625 -7.71875 C 9.335938 -7.664062 9.785156 -7.5625 10.234375 -7.40625 C 10.679688 -7.25 11.082031 -7.023438 11.4375 -6.734375 C 11.800781 -6.453125 12.09375 -6.09375 12.3125 -5.65625 C 12.539062 -5.21875 12.65625 -4.703125 12.65625 -4.109375 C 12.65625 -3.367188 12.488281 -2.726562 12.15625 -2.1875 C 11.832031 -1.65625 11.390625 -1.21875 10.828125 -0.875 C 10.265625 -0.53125 9.625 -0.273438 8.90625 -0.109375 C 8.195312 0.046875 7.457031 0.125 6.6875 0.125 C 6.394531 0.125 6.078125 0.113281 5.734375 0.09375 C 5.390625 0.0820312 5.039062 0.0703125 4.6875 0.0625 C 4.34375 0.0507812 4.007812 0.0351562 3.6875 0.015625 C 3.363281 0.00390625 3.09375 0 2.875 0 Z M 6.65625 -1.21875 C 7.53125 -1.21875 8.210938 -1.472656 8.703125 -1.984375 C 9.203125 -2.503906 9.453125 -3.195312 9.453125 -4.0625 C 9.453125 -4.582031 9.367188 -5.007812 9.203125 -5.34375 C 9.035156 -5.6875 8.804688 -5.957031 8.515625 -6.15625 C 8.234375 -6.351562 7.890625 -6.488281 7.484375 -6.5625 C 7.085938 -6.644531 6.65625 -6.6875 6.1875 -6.6875 L 5.09375 -6.6875 L 5.09375 -1.359375 C 5.28125 -1.316406 5.476562 -1.28125 5.6875 -1.25 C 5.90625 -1.226562 6.226562 -1.21875 6.65625 -1.21875 Z M 5.75 -8.03125 C 5.988281 -8.03125 6.222656 -8.039062 6.453125 -8.0625 C 6.691406 -8.082031 6.910156 -8.101562 7.109375 -8.125 C 7.648438 -8.351562 8.085938 -8.695312 8.421875 -9.15625 C 8.753906 -9.613281 8.921875 -10.140625 8.921875 -10.734375 C 8.921875 -11.609375 8.691406 -12.25 8.234375 -12.65625 C 7.773438 -13.0625 7.1875 -13.265625 6.46875 -13.265625 C 6.164062 -13.265625 5.90625 -13.253906 5.6875 -13.234375 C 5.46875 -13.222656 5.269531 -13.203125 5.09375 -13.171875 L 5.09375 -8.03125 Z M 5.75 -8.03125 "/></g></g></g><g fill="#FFFFFF" fill-opacity="1"><g transform="translate(195.893566, 206.043152)"><g><path d="M 0.140625 -14.484375 L 6.515625 -14.484375 L 6.515625 -13.6875 C 6.054688 -13.40625 5.53125 -13.207031 4.9375 -13.09375 L 4.9375 -5.125 C 4.9375 -4.445312 5.015625 -3.878906 5.171875 -3.421875 C 5.328125 -2.972656 5.546875 -2.609375 5.828125 -2.328125 C 6.117188 -2.046875 6.46875 -1.84375 6.875 -1.71875 C 7.28125 -1.59375 7.738281 -1.53125 8.25 -1.53125 C 8.707031 -1.53125 9.125 -1.59375 9.5 -1.71875 C 9.882812 -1.851562 10.21875 -2.066406 10.5 -2.359375 C 10.78125 -2.648438 10.992188 -3.03125 11.140625 -3.5 C 11.296875 -3.96875 11.375 -4.546875 11.375 -5.234375 L 11.375 -12.984375 C 11.0625 -13.054688 10.734375 -13.15625 10.390625 -13.28125 C 10.054688 -13.40625 9.78125 -13.539062 9.5625 -13.6875 L 9.5625 -14.484375 L 14.6875 -14.484375 L 14.6875 -13.6875 C 14.4375 -13.507812 14.160156 -13.363281 13.859375 -13.25 C 13.554688 -13.144531 13.257812 -13.054688 12.96875 -12.984375 L 12.96875 -5.21875 C 12.96875 -3.445312 12.5 -2.101562 11.5625 -1.1875 C 10.632812 -0.269531 9.328125 0.1875 7.640625 0.1875 C 5.785156 0.1875 4.351562 -0.222656 3.34375 -1.046875 C 2.34375 -1.878906 1.84375 -3.207031 1.84375 -5.03125 L 1.84375 -13.09375 C 1.5625 -13.132812 1.269531 -13.207031 0.96875 -13.3125 C 0.664062 -13.414062 0.390625 -13.539062 0.140625 -13.6875 Z M 0.140625 -14.484375 "/></g></g></g><g fill="#FFFFFF" fill-opacity="1"><g transform="translate(220.759497, 206.043152)"><g><path d="M 3.25 -1.71875 C 3.394531 -1.5625 3.601562 -1.414062 3.875 -1.28125 C 4.15625 -1.15625 4.523438 -1.09375 4.984375 -1.09375 C 5.742188 -1.09375 6.375 -1.289062 6.875 -1.6875 C 7.382812 -2.082031 7.640625 -2.628906 7.640625 -3.328125 C 7.640625 -3.835938 7.472656 -4.265625 7.140625 -4.609375 C 6.816406 -4.953125 6.40625 -5.269531 5.90625 -5.5625 C 5.414062 -5.851562 4.882812 -6.140625 4.3125 -6.421875 C 3.75 -6.703125 3.21875 -7.035156 2.71875 -7.421875 C 2.226562 -7.804688 1.820312 -8.265625 1.5 -8.796875 C 1.175781 -9.328125 1.015625 -9.988281 1.015625 -10.78125 C 1.015625 -11.457031 1.140625 -12.039062 1.390625 -12.53125 C 1.640625 -13.03125 1.976562 -13.441406 2.40625 -13.765625 C 2.84375 -14.085938 3.359375 -14.328125 3.953125 -14.484375 C 4.546875 -14.648438 5.1875 -14.734375 5.875 -14.734375 C 6.71875 -14.734375 7.5 -14.671875 8.21875 -14.546875 C 8.945312 -14.429688 9.597656 -14.25 10.171875 -14 C 10.160156 -13.726562 10.132812 -13.410156 10.09375 -13.046875 C 10.0625 -12.691406 10.019531 -12.335938 9.96875 -11.984375 C 9.914062 -11.628906 9.859375 -11.296875 9.796875 -10.984375 C 9.734375 -10.679688 9.675781 -10.425781 9.625 -10.21875 L 8.765625 -10.21875 L 7.8125 -13.046875 C 7.65625 -13.128906 7.410156 -13.207031 7.078125 -13.28125 C 6.753906 -13.351562 6.421875 -13.390625 6.078125 -13.390625 C 5.503906 -13.390625 5.015625 -13.234375 4.609375 -12.921875 C 4.210938 -12.617188 4.015625 -12.179688 4.015625 -11.609375 C 4.015625 -11.078125 4.175781 -10.628906 4.5 -10.265625 C 4.832031 -9.898438 5.25 -9.566406 5.75 -9.265625 C 6.25 -8.960938 6.789062 -8.660156 7.375 -8.359375 C 7.957031 -8.066406 8.5 -7.726562 9 -7.34375 C 9.5 -6.957031 9.910156 -6.503906 10.234375 -5.984375 C 10.566406 -5.472656 10.734375 -4.835938 10.734375 -4.078125 C 10.734375 -2.691406 10.265625 -1.625 9.328125 -0.875 C 8.398438 -0.125 7.035156 0.25 5.234375 0.25 C 4.796875 0.25 4.351562 0.21875 3.90625 0.15625 C 3.457031 0.101562 3.03125 0.03125 2.625 -0.0625 C 2.226562 -0.15625 1.875 -0.253906 1.5625 -0.359375 C 1.25 -0.472656 1.019531 -0.59375 0.875 -0.71875 C 0.882812 -1.039062 0.914062 -1.382812 0.96875 -1.75 C 1.03125 -2.113281 1.085938 -2.476562 1.140625 -2.84375 C 1.203125 -3.207031 1.269531 -3.554688 1.34375 -3.890625 C 1.414062 -4.222656 1.484375 -4.515625 1.546875 -4.765625 L 2.40625 -4.765625 Z M 3.25 -1.71875 "/></g></g></g><g fill="#FFFFFF" fill-opacity="1"><g transform="translate(242.37757, 206.043152)"><g><path d="M 10.453125 0 L 3.328125 0 L 3.328125 -0.78125 C 3.609375 -0.894531 3.921875 -1.007812 4.265625 -1.125 C 4.617188 -1.238281 4.976562 -1.328125 5.34375 -1.390625 L 5.34375 -13.140625 L 2.9375 -13.140625 L 1.609375 -9.59375 L 0.765625 -9.59375 C 0.710938 -9.875 0.65625 -10.226562 0.59375 -10.65625 C 0.539062 -11.082031 0.492188 -11.519531 0.453125 -11.96875 C 0.410156 -12.425781 0.375 -12.878906 0.34375 -13.328125 C 0.320312 -13.773438 0.3125 -14.160156 0.3125 -14.484375 L 13.484375 -14.484375 C 13.484375 -14.148438 13.46875 -13.757812 13.4375 -13.3125 C 13.414062 -12.875 13.382812 -12.425781 13.34375 -11.96875 C 13.300781 -11.519531 13.25 -11.082031 13.1875 -10.65625 C 13.132812 -10.238281 13.082031 -9.882812 13.03125 -9.59375 L 12.171875 -9.59375 L 10.84375 -13.140625 L 8.4375 -13.140625 L 8.4375 -1.390625 C 8.800781 -1.316406 9.15625 -1.234375 9.5 -1.140625 C 9.851562 -1.046875 10.171875 -0.925781 10.453125 -0.78125 Z M 10.453125 0 "/></g></g></g><g fill="#FFFFFF" fill-opacity="1"><g transform="translate(266.250536, 206.043152)"><g><path d="M 11.296875 -14.484375 C 11.265625 -13.859375 11.210938 -13.210938 11.140625 -12.546875 C 11.078125 -11.890625 10.988281 -11.273438 10.875 -10.703125 L 10.03125 -10.703125 L 9.078125 -13.140625 L 5.21875 -13.140625 L 5.21875 -8.0625 L 7.734375 -8.0625 L 8.640625 -9.65625 L 9.3125 -9.65625 C 9.375 -8.976562 9.40625 -8.226562 9.40625 -7.40625 C 9.40625 -6.582031 9.375 -5.8125 9.3125 -5.09375 L 8.640625 -5.09375 L 7.734375 -6.71875 L 5.21875 -6.71875 L 5.21875 -1.34375 L 9.25 -1.34375 L 10.34375 -3.96875 L 11.1875 -3.96875 C 11.25 -3.707031 11.304688 -3.410156 11.359375 -3.078125 C 11.410156 -2.753906 11.453125 -2.414062 11.484375 -2.0625 C 11.523438 -1.707031 11.554688 -1.347656 11.578125 -0.984375 C 11.597656 -0.628906 11.609375 -0.300781 11.609375 0 L 0.40625 0 L 0.40625 -0.78125 C 0.644531 -0.90625 0.910156 -1.019531 1.203125 -1.125 C 1.492188 -1.238281 1.796875 -1.328125 2.109375 -1.390625 L 2.109375 -13.09375 C 1.835938 -13.144531 1.546875 -13.222656 1.234375 -13.328125 C 0.921875 -13.429688 0.644531 -13.550781 0.40625 -13.6875 L 0.40625 -14.484375 Z M 11.296875 -14.484375 "/></g></g></g><g fill="#FFFFFF" fill-opacity="1"><g transform="translate(288.820203, 206.043152)"><g><path d="M 5.21875 -1.390625 C 5.53125 -1.316406 5.8125 -1.222656 6.0625 -1.109375 C 6.3125 -1.003906 6.550781 -0.894531 6.78125 -0.78125 L 6.78125 0 L 0.40625 0 L 0.40625 -0.78125 C 0.71875 -0.945312 1.007812 -1.070312 1.28125 -1.15625 C 1.5625 -1.25 1.835938 -1.328125 2.109375 -1.390625 L 2.109375 -13.09375 C 1.421875 -13.25 0.851562 -13.445312 0.40625 -13.6875 L 0.40625 -14.484375 L 2.609375 -14.484375 C 2.878906 -14.484375 3.191406 -14.488281 3.546875 -14.5 C 3.898438 -14.507812 4.269531 -14.523438 4.65625 -14.546875 C 5.039062 -14.566406 5.429688 -14.585938 5.828125 -14.609375 C 6.234375 -14.628906 6.625 -14.640625 7 -14.640625 C 7.75 -14.640625 8.441406 -14.550781 9.078125 -14.375 C 9.722656 -14.207031 10.273438 -13.953125 10.734375 -13.609375 C 11.203125 -13.265625 11.5625 -12.832031 11.8125 -12.3125 C 12.070312 -11.800781 12.203125 -11.203125 12.203125 -10.515625 C 12.203125 -9.515625 11.957031 -8.695312 11.46875 -8.0625 C 10.988281 -7.425781 10.332031 -6.953125 9.5 -6.640625 C 10.050781 -5.773438 10.632812 -4.890625 11.25 -3.984375 C 11.875 -3.078125 12.53125 -2.203125 13.21875 -1.359375 L 14.21875 -0.703125 L 14.21875 0 L 10.75 0 L 9.875 -0.6875 C 9.238281 -1.445312 8.675781 -2.320312 8.1875 -3.3125 C 7.695312 -4.3125 7.265625 -5.296875 6.890625 -6.265625 L 5.21875 -6.265625 Z M 6.25 -13.296875 C 5.820312 -13.296875 5.476562 -13.253906 5.21875 -13.171875 L 5.21875 -7.40625 L 6.4375 -7.40625 C 7.132812 -7.40625 7.734375 -7.65625 8.234375 -8.15625 C 8.734375 -8.664062 8.984375 -9.414062 8.984375 -10.40625 C 8.984375 -10.914062 8.910156 -11.351562 8.765625 -11.71875 C 8.628906 -12.082031 8.4375 -12.378906 8.1875 -12.609375 C 7.9375 -12.847656 7.644531 -13.019531 7.3125 -13.125 C 6.988281 -13.238281 6.632812 -13.296875 6.25 -13.296875 Z M 6.25 -13.296875 "/></g></g></g><g fill="#FFFFFF" fill-opacity="1"><g transform="translate(313.313775, 206.043152)"><g><path d="M 3.25 -1.71875 C 3.394531 -1.5625 3.601562 -1.414062 3.875 -1.28125 C 4.15625 -1.15625 4.523438 -1.09375 4.984375 -1.09375 C 5.742188 -1.09375 6.375 -1.289062 6.875 -1.6875 C 7.382812 -2.082031 7.640625 -2.628906 7.640625 -3.328125 C 7.640625 -3.835938 7.472656 -4.265625 7.140625 -4.609375 C 6.816406 -4.953125 6.40625 -5.269531 5.90625 -5.5625 C 5.414062 -5.851562 4.882812 -6.140625 4.3125 -6.421875 C 3.75 -6.703125 3.21875 -7.035156 2.71875 -7.421875 C 2.226562 -7.804688 1.820312 -8.265625 1.5 -8.796875 C 1.175781 -9.328125 1.015625 -9.988281 1.015625 -10.78125 C 1.015625 -11.457031 1.140625 -12.039062 1.390625 -12.53125 C 1.640625 -13.03125 1.976562 -13.441406 2.40625 -13.765625 C 2.84375 -14.085938 3.359375 -14.328125 3.953125 -14.484375 C 4.546875 -14.648438 5.1875 -14.734375 5.875 -14.734375 C 6.71875 -14.734375 7.5 -14.671875 8.21875 -14.546875 C 8.945312 -14.429688 9.597656 -14.25 10.171875 -14 C 10.160156 -13.726562 10.132812 -13.410156 10.09375 -13.046875 C 10.0625 -12.691406 10.019531 -12.335938 9.96875 -11.984375 C 9.914062 -11.628906 9.859375 -11.296875 9.796875 -10.984375 C 9.734375 -10.679688 9.675781 -10.425781 9.625 -10.21875 L 8.765625 -10.21875 L 7.8125 -13.046875 C 7.65625 -13.128906 7.410156 -13.207031 7.078125 -13.28125 C 6.753906 -13.351562 6.421875 -13.390625 6.078125 -13.390625 C 5.503906 -13.390625 5.015625 -13.234375 4.609375 -12.921875 C 4.210938 -12.617188 4.015625 -12.179688 4.015625 -11.609375 C 4.015625 -11.078125 4.175781 -10.628906 4.5 -10.265625 C 4.832031 -9.898438 5.25 -9.566406 5.75 -9.265625 C 6.25 -8.960938 6.789062 -8.660156 7.375 -8.359375 C 7.957031 -8.066406 8.5 -7.726562 9 -7.34375 C 9.5 -6.957031 9.910156 -6.503906 10.234375 -5.984375 C 10.566406 -5.472656 10.734375 -4.835938 10.734375 -4.078125 C 10.734375 -2.691406 10.265625 -1.625 9.328125 -0.875 C 8.398438 -0.125 7.035156 0.25 5.234375 0.25 C 4.796875 0.25 4.351562 0.21875 3.90625 0.15625 C 3.457031 0.101562 3.03125 0.03125 2.625 -0.0625 C 2.226562 -0.15625 1.875 -0.253906 1.5625 -0.359375 C 1.25 -0.472656 1.019531 -0.59375 0.875 -0.71875 C 0.882812 -1.039062 0.914062 -1.382812 0.96875 -1.75 C 1.03125 -2.113281 1.085938 -2.476562 1.140625 -2.84375 C 1.203125 -3.207031 1.269531 -3.554688 1.34375 -3.890625 C 1.414062 -4.222656 1.484375 -4.515625 1.546875 -4.765625 L 2.40625 -4.765625 Z M 3.25 -1.71875 "/></g></g></g></svg>