<svg xmlns="http://www.w3.org/2000/svg" xmlns:xlink="http://www.w3.org/1999/xlink" width="500" zoomAndPan="magnify" viewBox="0 0 375 374.999991" height="500" preserveAspectRatio="xMidYMid meet" version="1.0"><defs><g/><clipPath id="5e30d73d48"><path d="M 117.789062 24.597656 L 257.289062 24.597656 L 257.289062 203 L 117.789062 203 Z M 117.789062 24.597656 " clip-rule="nonzero"/></clipPath></defs><path fill="#5e17eb" d="M 174.113281 165.617188 C 185.128906 165.617188 195.585938 160.316406 202.136719 151.535156 C 206.179688 146.238281 208.410156 139.824219 208.96875 133.132812 C 209.109375 131.738281 208.550781 130.34375 207.574219 129.367188 C 206.597656 128.390625 205.34375 127.832031 203.949219 127.832031 L 176.902344 127.832031 L 176.902344 100.785156 C 176.902344 99.394531 176.34375 98.136719 175.367188 97.160156 C 174.394531 96.1875 173 95.769531 171.605469 95.90625 C 164.914062 96.324219 158.640625 98.695312 153.203125 102.738281 C 144.417969 109.292969 139.121094 119.746094 139.121094 130.761719 C 139.121094 150 154.875 165.617188 174.113281 165.617188 Z M 156.6875 107.339844 C 161.007812 104.132812 166.027344 102.179688 171.1875 101.761719 L 171.1875 128.808594 C 171.1875 131.597656 173.417969 133.828125 176.207031 133.828125 L 203.253906 133.828125 C 202.695312 139.125 200.742188 144.144531 197.675781 148.328125 C 192.097656 155.855469 183.59375 160.179688 174.253906 160.179688 C 158.082031 160.179688 144.976562 147.074219 144.976562 130.902344 C 144.835938 121.421875 149.160156 112.777344 156.6875 107.339844 Z M 156.6875 107.339844 " fill-opacity="1" fill-rule="nonzero"/><path fill="#5e17eb" d="M 184.429688 87.960938 C 183.035156 87.820312 181.644531 88.378906 180.667969 89.214844 C 179.691406 90.191406 179.132812 91.445312 179.132812 92.839844 L 179.132812 120.585938 C 179.132812 123.371094 181.363281 125.601562 184.152344 125.601562 L 211.894531 125.601562 C 213.289062 125.601562 214.546875 125.046875 215.519531 124.070312 C 216.496094 123.09375 216.914062 121.699219 216.914062 120.304688 C 215.660156 103.015625 201.71875 89.074219 184.429688 87.960938 Z M 184.847656 119.886719 L 184.847656 93.675781 C 198.652344 95.070312 209.664062 106.085938 211.058594 119.886719 Z M 184.847656 119.886719 " fill-opacity="1" fill-rule="nonzero"/><path fill="#5e17eb" d="M 206.597656 173.421875 L 149.296875 173.421875 C 147.765625 173.421875 146.371094 174.679688 146.371094 176.351562 C 146.371094 177.886719 147.625 179.277344 149.296875 179.277344 L 206.597656 179.277344 C 208.132812 179.277344 209.527344 178.023438 209.527344 176.351562 C 209.527344 174.816406 208.269531 173.421875 206.597656 173.421875 Z M 206.597656 173.421875 " fill-opacity="1" fill-rule="nonzero"/><path fill="#5e17eb" d="M 202.554688 185.273438 L 155.015625 185.273438 C 153.480469 185.273438 152.085938 186.527344 152.085938 188.203125 C 152.085938 189.734375 153.339844 191.128906 155.015625 191.128906 L 202.554688 191.128906 C 204.089844 191.128906 205.484375 189.875 205.484375 188.203125 C 205.34375 186.527344 204.089844 185.273438 202.554688 185.273438 Z M 202.554688 185.273438 " fill-opacity="1" fill-rule="nonzero"/><path fill="#5e17eb" d="M 135.078125 60.632812 L 182.757812 60.632812 C 184.292969 60.632812 185.6875 59.378906 185.6875 57.707031 C 185.6875 56.171875 184.429688 54.777344 182.757812 54.777344 L 135.078125 54.777344 C 133.542969 54.777344 132.148438 56.035156 132.148438 57.707031 C 132.289062 59.378906 133.542969 60.632812 135.078125 60.632812 Z M 135.078125 60.632812 " fill-opacity="1" fill-rule="nonzero"/><path fill="#5e17eb" d="M 135.078125 72.34375 L 173.277344 72.34375 C 174.8125 72.34375 176.207031 71.089844 176.207031 69.417969 C 176.207031 67.882812 174.949219 66.488281 173.277344 66.488281 L 135.078125 66.488281 C 133.542969 66.488281 132.148438 67.746094 132.148438 69.417969 C 132.289062 71.089844 133.542969 72.34375 135.078125 72.34375 Z M 135.078125 72.34375 " fill-opacity="1" fill-rule="nonzero"/><path fill="#5e17eb" d="M 168.539062 81.269531 C 168.539062 79.734375 167.28125 78.339844 165.609375 78.339844 L 135.078125 78.339844 C 133.542969 78.339844 132.148438 79.59375 132.148438 81.269531 C 132.148438 82.941406 133.402344 84.195312 135.078125 84.195312 L 165.609375 84.195312 C 167.28125 84.195312 168.539062 82.941406 168.539062 81.269531 Z M 168.539062 81.269531 " fill-opacity="1" fill-rule="nonzero"/><g clip-path="url(#5e30d73d48)"><path fill="#5e17eb" d="M 257.207031 50.597656 C 257.207031 36.515625 245.636719 24.945312 231.554688 24.945312 C 221.097656 24.945312 212.035156 31.21875 208.132812 40.28125 L 124.480469 40.28125 C 120.855469 40.28125 117.789062 43.207031 117.789062 46.972656 L 117.789062 196.148438 C 117.789062 199.773438 120.855469 202.839844 124.480469 202.839844 L 231.554688 202.839844 C 235.179688 202.839844 238.246094 199.773438 238.246094 196.148438 L 238.246094 75.414062 C 249.121094 72.484375 257.207031 62.445312 257.207031 50.597656 Z M 232.53125 196.007812 C 232.53125 196.566406 232.113281 196.984375 231.554688 196.984375 L 124.480469 196.984375 C 123.921875 196.984375 123.503906 196.566406 123.503906 196.007812 L 123.503906 46.832031 C 123.503906 46.273438 123.921875 45.855469 124.480469 45.855469 L 206.320312 45.855469 C 206.039062 47.390625 205.902344 48.921875 205.902344 50.457031 C 205.902344 64.675781 217.472656 76.109375 231.554688 76.109375 C 231.832031 76.109375 232.25 76.109375 232.53125 76.109375 Z M 231.554688 70.53125 C 220.539062 70.53125 211.617188 61.609375 211.617188 50.597656 C 211.617188 39.582031 220.539062 30.660156 231.554688 30.660156 C 242.566406 30.660156 251.492188 39.582031 251.492188 50.597656 C 251.492188 61.609375 242.566406 70.53125 231.554688 70.53125 Z M 231.554688 70.53125 " fill-opacity="1" fill-rule="nonzero"/></g><path fill="#5e17eb" d="M 244.660156 39.441406 C 243.40625 38.46875 241.59375 38.605469 240.617188 39.859375 L 229.324219 53.523438 L 222.351562 48.503906 C 221.097656 47.527344 219.285156 47.949219 218.308594 49.203125 C 217.332031 50.457031 217.75 52.269531 219.007812 53.246094 L 227.929688 59.660156 C 228.488281 60.078125 229.042969 60.214844 229.742188 60.214844 C 230.578125 60.214844 231.554688 59.796875 232.25 59.101562 L 244.9375 43.625 C 246.054688 42.230469 245.914062 40.417969 244.660156 39.441406 Z M 244.660156 39.441406 " fill-opacity="1" fill-rule="nonzero"/><g fill="#5e17eb" fill-opacity="1"><g transform="translate(56.285874, 274.137671)"><g><path d="M 4.015625 0.046875 L 4.015625 -31.171875 L 14.09375 -31.171875 C 15.550781 -31.171875 16.929688 -30.96875 18.234375 -30.5625 C 19.535156 -30.164062 20.679688 -29.570312 21.671875 -28.78125 C 22.671875 -28 23.457031 -27.035156 24.03125 -25.890625 C 24.601562 -24.753906 24.890625 -23.457031 24.890625 -22 C 24.890625 -20.6875 24.628906 -19.492188 24.109375 -18.421875 C 23.585938 -17.347656 22.863281 -16.425781 21.9375 -15.65625 C 21.019531 -14.882812 19.972656 -14.289062 18.796875 -13.875 L 27.46875 0.046875 L 21.046875 0.046875 L 13.375 -13.328125 L 9.625 -13.328125 L 9.625 0.046875 Z M 9.671875 -17.890625 L 14.609375 -17.890625 C 16.085938 -17.960938 17.242188 -18.359375 18.078125 -19.078125 C 18.921875 -19.804688 19.34375 -20.75 19.34375 -21.90625 C 19.34375 -23.195312 18.875 -24.226562 17.9375 -25 C 17.007812 -25.78125 15.742188 -26.171875 14.140625 -26.171875 L 9.671875 -26.171875 Z M 9.671875 -17.890625 "/></g></g></g><g fill="#5e17eb" fill-opacity="1"><g transform="translate(89.184709, 274.137671)"><g><path d="M 4.015625 0 L 4.015625 -31.171875 L 24.75 -31.171875 L 24.75 -26.03125 L 9.625 -26.03125 L 9.625 -18.15625 L 23.71875 -18.15625 L 23.71875 -13.015625 L 9.625 -13.015625 L 9.625 -5.296875 L 24.75 -5.296875 L 24.75 0 Z M 4.015625 0 "/></g></g></g><g fill="#5e17eb" fill-opacity="1"><g transform="translate(121.576163, 274.137671)"><g><path d="M 4.015625 0 L 4.015625 -31.171875 L 13.796875 -31.171875 C 15.378906 -31.171875 16.835938 -30.96875 18.171875 -30.5625 C 19.515625 -30.164062 20.679688 -29.570312 21.671875 -28.78125 C 22.671875 -28 23.441406 -27.03125 23.984375 -25.875 C 24.523438 -24.726562 24.796875 -23.421875 24.796875 -21.953125 C 24.796875 -20.492188 24.523438 -19.207031 23.984375 -18.09375 C 23.441406 -16.976562 22.671875 -16.03125 21.671875 -15.25 C 20.679688 -14.476562 19.515625 -13.894531 18.171875 -13.5 C 16.835938 -13.113281 15.378906 -12.921875 13.796875 -12.921875 L 9.578125 -12.921875 L 9.578125 0 Z M 9.578125 -18.15625 L 13.796875 -18.15625 C 15.722656 -18.15625 17.109375 -18.476562 17.953125 -19.125 C 18.804688 -19.769531 19.234375 -20.710938 19.234375 -21.953125 C 19.234375 -23.210938 18.800781 -24.191406 17.9375 -24.890625 C 17.070312 -25.597656 15.691406 -25.953125 13.796875 -25.953125 L 9.578125 -25.953125 Z M 9.578125 -18.15625 "/></g></g></g><g fill="#5e17eb" fill-opacity="1"><g transform="translate(152.246907, 274.137671)"><g><path d="M 16.859375 0.4375 C 14.796875 0.4375 12.953125 0.160156 11.328125 -0.390625 C 9.703125 -0.953125 8.289062 -1.738281 7.09375 -2.75 C 5.90625 -3.757812 4.914062 -4.9375 4.125 -6.28125 C 3.34375 -7.632812 2.757812 -9.101562 2.375 -10.6875 C 2 -12.269531 1.8125 -13.90625 1.8125 -15.59375 C 1.8125 -17.300781 2 -18.941406 2.375 -20.515625 C 2.757812 -22.085938 3.34375 -23.550781 4.125 -24.90625 C 4.914062 -26.257812 5.90625 -27.441406 7.09375 -28.453125 C 8.289062 -29.460938 9.703125 -30.242188 11.328125 -30.796875 C 12.953125 -31.359375 14.796875 -31.640625 16.859375 -31.640625 C 18.921875 -31.640625 20.765625 -31.359375 22.390625 -30.796875 C 24.015625 -30.242188 25.421875 -29.460938 26.609375 -28.453125 C 27.796875 -27.441406 28.78125 -26.257812 29.5625 -24.90625 C 30.351562 -23.550781 30.941406 -22.085938 31.328125 -20.515625 C 31.710938 -18.941406 31.90625 -17.300781 31.90625 -15.59375 C 31.90625 -13.90625 31.710938 -12.269531 31.328125 -10.6875 C 30.941406 -9.101562 30.351562 -7.632812 29.5625 -6.28125 C 28.78125 -4.9375 27.796875 -3.757812 26.609375 -2.75 C 25.421875 -1.738281 24.015625 -0.953125 22.390625 -0.390625 C 20.765625 0.160156 18.921875 0.4375 16.859375 0.4375 Z M 16.859375 -4.515625 C 18.535156 -4.515625 19.953125 -4.8125 21.109375 -5.40625 C 22.273438 -6.007812 23.210938 -6.828125 23.921875 -7.859375 C 24.640625 -8.890625 25.160156 -10.066406 25.484375 -11.390625 C 25.816406 -12.722656 25.984375 -14.125 25.984375 -15.59375 C 25.984375 -17.070312 25.816406 -18.472656 25.484375 -19.796875 C 25.160156 -21.117188 24.640625 -22.289062 23.921875 -23.3125 C 23.210938 -24.34375 22.273438 -25.15625 21.109375 -25.75 C 19.953125 -26.351562 18.535156 -26.65625 16.859375 -26.65625 C 15.179688 -26.65625 13.757812 -26.351562 12.59375 -25.75 C 11.4375 -25.15625 10.5 -24.34375 9.78125 -23.3125 C 9.070312 -22.289062 8.550781 -21.117188 8.21875 -19.796875 C 7.882812 -18.472656 7.71875 -17.070312 7.71875 -15.59375 C 7.71875 -14.125 7.882812 -12.722656 8.21875 -11.390625 C 8.550781 -10.066406 9.070312 -8.890625 9.78125 -7.859375 C 10.5 -6.828125 11.4375 -6.007812 12.59375 -5.40625 C 13.757812 -4.8125 15.179688 -4.515625 16.859375 -4.515625 Z M 16.859375 -4.515625 "/></g></g></g><g fill="#5e17eb" fill-opacity="1"><g transform="translate(190.881442, 274.137671)"><g><path d="M 4.015625 0.046875 L 4.015625 -31.171875 L 14.09375 -31.171875 C 15.550781 -31.171875 16.929688 -30.96875 18.234375 -30.5625 C 19.535156 -30.164062 20.679688 -29.570312 21.671875 -28.78125 C 22.671875 -28 23.457031 -27.035156 24.03125 -25.890625 C 24.601562 -24.753906 24.890625 -23.457031 24.890625 -22 C 24.890625 -20.6875 24.628906 -19.492188 24.109375 -18.421875 C 23.585938 -17.347656 22.863281 -16.425781 21.9375 -15.65625 C 21.019531 -14.882812 19.972656 -14.289062 18.796875 -13.875 L 27.46875 0.046875 L 21.046875 0.046875 L 13.375 -13.328125 L 9.625 -13.328125 L 9.625 0.046875 Z M 9.671875 -17.890625 L 14.609375 -17.890625 C 16.085938 -17.960938 17.242188 -18.359375 18.078125 -19.078125 C 18.921875 -19.804688 19.34375 -20.75 19.34375 -21.90625 C 19.34375 -23.195312 18.875 -24.226562 17.9375 -25 C 17.007812 -25.78125 15.742188 -26.171875 14.140625 -26.171875 L 9.671875 -26.171875 Z M 9.671875 -17.890625 "/></g></g></g><g fill="#5e17eb" fill-opacity="1"><g transform="translate(223.780286, 274.137671)"><g><path d="M 10.21875 0 L 10.21875 -26.171875 L 0.4375 -26.171875 L 0.4375 -31.171875 L 25.578125 -31.171875 L 25.578125 -26.171875 L 15.8125 -26.171875 L 15.8125 0 Z M 10.21875 0 "/></g></g></g><g fill="#5e17eb" fill-opacity="1"><g transform="translate(254.7378, 274.137671)"><g/></g></g><g fill="#5e17eb" fill-opacity="1"><g transform="translate(270.517769, 274.137671)"><g><path d="M 0.265625 0 L 12.75 -31.171875 L 16.953125 -31.171875 L 29.375 0 L 23.328125 0 L 20.921875 -6.78125 L 8.796875 -6.78125 L 6.375 0 Z M 10.703125 -11.5625 L 19.015625 -11.5625 L 14.875 -22.953125 Z M 10.703125 -11.5625 "/></g></g></g><g fill="#5e17eb" fill-opacity="1"><g transform="translate(305.071149, 274.137671)"><g><path d="M 4.015625 0 L 4.015625 -31.171875 L 9.625 -31.171875 L 9.625 0 Z M 4.015625 0 "/></g></g></g><g fill="#5e17eb" fill-opacity="1"><g transform="translate(78.368149, 303.925811)"><g><path d="M 0.328125 0 L 0.328125 -0.625 C 0.535156 -0.75 0.753906 -0.851562 0.984375 -0.9375 C 1.222656 -1.019531 1.453125 -1.070312 1.671875 -1.09375 L 1.671875 -10.40625 C 1.453125 -10.445312 1.222656 -10.507812 0.984375 -10.59375 C 0.742188 -10.675781 0.523438 -10.769531 0.328125 -10.875 L 0.328125 -11.5 L 2.96875 -11.5 C 3.382812 -11.5 3.78125 -11.515625 4.15625 -11.546875 C 4.53125 -11.585938 4.957031 -11.609375 5.4375 -11.609375 C 5.96875 -11.609375 6.476562 -11.566406 6.96875 -11.484375 C 7.457031 -11.410156 7.894531 -11.273438 8.28125 -11.078125 C 8.664062 -10.878906 8.972656 -10.601562 9.203125 -10.25 C 9.429688 -9.894531 9.546875 -9.4375 9.546875 -8.875 C 9.546875 -8.519531 9.484375 -8.191406 9.359375 -7.890625 C 9.234375 -7.597656 9.054688 -7.332031 8.828125 -7.09375 C 8.609375 -6.863281 8.347656 -6.671875 8.046875 -6.515625 C 7.742188 -6.367188 7.414062 -6.265625 7.0625 -6.203125 L 7.0625 -6.125 C 7.414062 -6.082031 7.769531 -6 8.125 -5.875 C 8.476562 -5.757812 8.796875 -5.585938 9.078125 -5.359375 C 9.367188 -5.128906 9.601562 -4.84375 9.78125 -4.5 C 9.96875 -4.15625 10.0625 -3.742188 10.0625 -3.265625 C 10.0625 -2.679688 9.925781 -2.171875 9.65625 -1.734375 C 9.394531 -1.304688 9.039062 -0.957031 8.59375 -0.6875 C 8.15625 -0.414062 7.648438 -0.21875 7.078125 -0.09375 C 6.515625 0.03125 5.925781 0.09375 5.3125 0.09375 C 5.082031 0.09375 4.828125 0.0859375 4.546875 0.078125 C 4.273438 0.0664062 4.003906 0.0546875 3.734375 0.046875 C 3.460938 0.0351562 3.195312 0.0234375 2.9375 0.015625 C 2.675781 0.00390625 2.457031 0 2.28125 0 Z M 5.296875 -0.96875 C 5.984375 -0.96875 6.523438 -1.171875 6.921875 -1.578125 C 7.316406 -1.992188 7.515625 -2.539062 7.515625 -3.21875 C 7.515625 -3.632812 7.445312 -3.976562 7.3125 -4.25 C 7.1875 -4.519531 7.003906 -4.734375 6.765625 -4.890625 C 6.535156 -5.046875 6.257812 -5.15625 5.9375 -5.21875 C 5.625 -5.28125 5.285156 -5.3125 4.921875 -5.3125 L 4.046875 -5.3125 L 4.046875 -1.078125 C 4.203125 -1.046875 4.363281 -1.019531 4.53125 -1 C 4.695312 -0.976562 4.953125 -0.96875 5.296875 -0.96875 Z M 4.5625 -6.375 C 4.75 -6.375 4.9375 -6.378906 5.125 -6.390625 C 5.3125 -6.410156 5.488281 -6.429688 5.65625 -6.453125 C 6.082031 -6.628906 6.425781 -6.898438 6.6875 -7.265625 C 6.945312 -7.640625 7.078125 -8.0625 7.078125 -8.53125 C 7.078125 -9.21875 6.894531 -9.722656 6.53125 -10.046875 C 6.175781 -10.367188 5.710938 -10.53125 5.140625 -10.53125 C 4.898438 -10.53125 4.691406 -10.523438 4.515625 -10.515625 C 4.335938 -10.503906 4.179688 -10.488281 4.046875 -10.46875 L 4.046875 -6.375 Z M 4.5625 -6.375 "/></g></g></g><g fill="#5e17eb" fill-opacity="1"><g transform="translate(97.038157, 303.925811)"><g><path d="M 7.453125 -11.5 L 11.46875 -11.5 L 11.46875 -10.875 C 11.3125 -10.78125 11.128906 -10.6875 10.921875 -10.59375 C 10.722656 -10.5 10.519531 -10.4375 10.3125 -10.40625 L 7.125 -4.8125 L 7.125 -1.09375 C 7.34375 -1.070312 7.554688 -1.015625 7.765625 -0.921875 C 7.984375 -0.828125 8.179688 -0.726562 8.359375 -0.625 L 8.359375 0 L 3.296875 0 L 3.296875 -0.625 C 3.484375 -0.71875 3.691406 -0.804688 3.921875 -0.890625 C 4.160156 -0.984375 4.40625 -1.050781 4.65625 -1.09375 L 4.65625 -4.796875 L 1.328125 -10.40625 C 1.078125 -10.445312 0.835938 -10.507812 0.609375 -10.59375 C 0.390625 -10.6875 0.1875 -10.78125 0 -10.875 L 0 -11.5 L 5.390625 -11.5 L 5.390625 -10.875 C 5.234375 -10.789062 5.054688 -10.703125 4.859375 -10.609375 C 4.660156 -10.523438 4.429688 -10.457031 4.171875 -10.40625 L 6.53125 -6 L 8.765625 -10.40625 C 8.515625 -10.457031 8.269531 -10.523438 8.03125 -10.609375 C 7.800781 -10.703125 7.609375 -10.789062 7.453125 -10.875 Z M 7.453125 -11.5 "/></g></g></g><g fill="#5e17eb" fill-opacity="1"><g transform="translate(116.513484, 303.925811)"><g/></g></g><g fill="#5e17eb" fill-opacity="1"><g transform="translate(128.95469, 303.925811)"><g><path d="M 4.0625 0 L 0 0 L 0 -0.625 C 0.175781 -0.726562 0.363281 -0.820312 0.5625 -0.90625 C 0.769531 -0.988281 0.972656 -1.050781 1.171875 -1.09375 L 5.40625 -11.703125 L 6.625 -11.703125 L 10.75 -1.09375 C 10.96875 -1.050781 11.1875 -0.988281 11.40625 -0.90625 C 11.625 -0.820312 11.816406 -0.726562 11.984375 -0.625 L 11.984375 0 L 6.84375 0 L 6.84375 -0.625 C 7.050781 -0.71875 7.273438 -0.804688 7.515625 -0.890625 C 7.753906 -0.984375 7.984375 -1.050781 8.203125 -1.09375 L 7.25 -3.71875 L 3.59375 -3.71875 L 2.625 -1.09375 C 3.132812 -1.03125 3.613281 -0.875 4.0625 -0.625 Z M 4 -4.78125 L 6.90625 -4.78125 L 5.828125 -7.921875 L 5.515625 -9.34375 L 5.484375 -9.34375 L 5.125 -7.890625 Z M 4 -4.78125 "/></g></g></g><g fill="#5e17eb" fill-opacity="1"><g transform="translate(148.939482, 303.925811)"><g><path d="M 5.625 0 L 0.5 0 L 0.5 -0.625 C 0.9375 -0.863281 1.378906 -1.019531 1.828125 -1.09375 L 1.828125 -10.40625 C 1.609375 -10.4375 1.375 -10.492188 1.125 -10.578125 C 0.882812 -10.671875 0.675781 -10.769531 0.5 -10.875 L 0.5 -11.5 L 5.625 -11.5 L 5.625 -10.875 C 5.425781 -10.757812 5.207031 -10.660156 4.96875 -10.578125 C 4.738281 -10.492188 4.515625 -10.4375 4.296875 -10.40625 L 4.296875 -1.09375 C 4.515625 -1.050781 4.738281 -0.992188 4.96875 -0.921875 C 5.207031 -0.847656 5.425781 -0.75 5.625 -0.625 Z M 5.625 0 "/></g></g></g><g fill="#5e17eb" fill-opacity="1"><g transform="translate(163.057039, 303.925811)"><g/></g></g><g fill="#5e17eb" fill-opacity="1"><g transform="translate(175.498241, 303.925811)"><g><path d="M 0.328125 0 L 0.328125 -0.625 C 0.535156 -0.75 0.753906 -0.851562 0.984375 -0.9375 C 1.222656 -1.019531 1.453125 -1.070312 1.671875 -1.09375 L 1.671875 -10.40625 C 1.453125 -10.445312 1.222656 -10.507812 0.984375 -10.59375 C 0.742188 -10.675781 0.523438 -10.769531 0.328125 -10.875 L 0.328125 -11.5 L 2.96875 -11.5 C 3.382812 -11.5 3.78125 -11.515625 4.15625 -11.546875 C 4.53125 -11.585938 4.957031 -11.609375 5.4375 -11.609375 C 5.96875 -11.609375 6.476562 -11.566406 6.96875 -11.484375 C 7.457031 -11.410156 7.894531 -11.273438 8.28125 -11.078125 C 8.664062 -10.878906 8.972656 -10.601562 9.203125 -10.25 C 9.429688 -9.894531 9.546875 -9.4375 9.546875 -8.875 C 9.546875 -8.519531 9.484375 -8.191406 9.359375 -7.890625 C 9.234375 -7.597656 9.054688 -7.332031 8.828125 -7.09375 C 8.609375 -6.863281 8.347656 -6.671875 8.046875 -6.515625 C 7.742188 -6.367188 7.414062 -6.265625 7.0625 -6.203125 L 7.0625 -6.125 C 7.414062 -6.082031 7.769531 -6 8.125 -5.875 C 8.476562 -5.757812 8.796875 -5.585938 9.078125 -5.359375 C 9.367188 -5.128906 9.601562 -4.84375 9.78125 -4.5 C 9.96875 -4.15625 10.0625 -3.742188 10.0625 -3.265625 C 10.0625 -2.679688 9.925781 -2.171875 9.65625 -1.734375 C 9.394531 -1.304688 9.039062 -0.957031 8.59375 -0.6875 C 8.15625 -0.414062 7.648438 -0.21875 7.078125 -0.09375 C 6.515625 0.03125 5.925781 0.09375 5.3125 0.09375 C 5.082031 0.09375 4.828125 0.0859375 4.546875 0.078125 C 4.273438 0.0664062 4.003906 0.0546875 3.734375 0.046875 C 3.460938 0.0351562 3.195312 0.0234375 2.9375 0.015625 C 2.675781 0.00390625 2.457031 0 2.28125 0 Z M 5.296875 -0.96875 C 5.984375 -0.96875 6.523438 -1.171875 6.921875 -1.578125 C 7.316406 -1.992188 7.515625 -2.539062 7.515625 -3.21875 C 7.515625 -3.632812 7.445312 -3.976562 7.3125 -4.25 C 7.1875 -4.519531 7.003906 -4.734375 6.765625 -4.890625 C 6.535156 -5.046875 6.257812 -5.15625 5.9375 -5.21875 C 5.625 -5.28125 5.285156 -5.3125 4.921875 -5.3125 L 4.046875 -5.3125 L 4.046875 -1.078125 C 4.203125 -1.046875 4.363281 -1.019531 4.53125 -1 C 4.695312 -0.976562 4.953125 -0.96875 5.296875 -0.96875 Z M 4.5625 -6.375 C 4.75 -6.375 4.9375 -6.378906 5.125 -6.390625 C 5.3125 -6.410156 5.488281 -6.429688 5.65625 -6.453125 C 6.082031 -6.628906 6.425781 -6.898438 6.6875 -7.265625 C 6.945312 -7.640625 7.078125 -8.0625 7.078125 -8.53125 C 7.078125 -9.21875 6.894531 -9.722656 6.53125 -10.046875 C 6.175781 -10.367188 5.710938 -10.53125 5.140625 -10.53125 C 4.898438 -10.53125 4.691406 -10.523438 4.515625 -10.515625 C 4.335938 -10.503906 4.179688 -10.488281 4.046875 -10.46875 L 4.046875 -6.375 Z M 4.5625 -6.375 "/></g></g></g><g fill="#5e17eb" fill-opacity="1"><g transform="translate(194.168254, 303.925811)"><g><path d="M 0.109375 -11.5 L 5.171875 -11.5 L 5.171875 -10.875 C 4.816406 -10.644531 4.398438 -10.488281 3.921875 -10.40625 L 3.921875 -4.078125 C 3.921875 -3.535156 3.984375 -3.082031 4.109375 -2.71875 C 4.234375 -2.363281 4.410156 -2.070312 4.640625 -1.84375 C 4.867188 -1.625 5.144531 -1.460938 5.46875 -1.359375 C 5.789062 -1.265625 6.15625 -1.21875 6.5625 -1.21875 C 6.914062 -1.21875 7.242188 -1.269531 7.546875 -1.375 C 7.847656 -1.476562 8.109375 -1.644531 8.328125 -1.875 C 8.554688 -2.101562 8.734375 -2.40625 8.859375 -2.78125 C 8.984375 -3.15625 9.046875 -3.613281 9.046875 -4.15625 L 9.046875 -10.328125 C 8.785156 -10.378906 8.519531 -10.453125 8.25 -10.546875 C 7.988281 -10.648438 7.769531 -10.757812 7.59375 -10.875 L 7.59375 -11.5 L 11.671875 -11.5 L 11.671875 -10.875 C 11.472656 -10.738281 11.253906 -10.625 11.015625 -10.53125 C 10.773438 -10.445312 10.539062 -10.378906 10.3125 -10.328125 L 10.3125 -4.140625 C 10.3125 -2.734375 9.941406 -1.664062 9.203125 -0.9375 C 8.460938 -0.21875 7.414062 0.140625 6.0625 0.140625 C 4.59375 0.140625 3.457031 -0.1875 2.65625 -0.84375 C 1.863281 -1.5 1.46875 -2.550781 1.46875 -4 L 1.46875 -10.40625 C 1.25 -10.4375 1.015625 -10.492188 0.765625 -10.578125 C 0.523438 -10.660156 0.304688 -10.757812 0.109375 -10.875 Z M 0.109375 -11.5 "/></g></g></g><g fill="#5e17eb" fill-opacity="1"><g transform="translate(213.922964, 303.925811)"><g><path d="M 2.578125 -1.359375 C 2.703125 -1.242188 2.875 -1.132812 3.09375 -1.03125 C 3.3125 -0.925781 3.601562 -0.875 3.96875 -0.875 C 4.5625 -0.875 5.054688 -1.03125 5.453125 -1.34375 C 5.859375 -1.65625 6.0625 -2.085938 6.0625 -2.640625 C 6.0625 -3.046875 5.929688 -3.382812 5.671875 -3.65625 C 5.421875 -3.9375 5.097656 -4.191406 4.703125 -4.421875 C 4.304688 -4.648438 3.882812 -4.875 3.4375 -5.09375 C 2.988281 -5.320312 2.566406 -5.585938 2.171875 -5.890625 C 1.773438 -6.203125 1.445312 -6.566406 1.1875 -6.984375 C 0.9375 -7.410156 0.8125 -7.9375 0.8125 -8.5625 C 0.8125 -9.101562 0.90625 -9.566406 1.09375 -9.953125 C 1.289062 -10.347656 1.5625 -10.675781 1.90625 -10.9375 C 2.257812 -11.195312 2.671875 -11.390625 3.140625 -11.515625 C 3.609375 -11.640625 4.117188 -11.703125 4.671875 -11.703125 C 5.335938 -11.703125 5.957031 -11.65625 6.53125 -11.5625 C 7.101562 -11.46875 7.625 -11.320312 8.09375 -11.125 C 8.082031 -10.90625 8.0625 -10.648438 8.03125 -10.359375 C 8 -10.078125 7.960938 -9.796875 7.921875 -9.515625 C 7.878906 -9.242188 7.832031 -8.984375 7.78125 -8.734375 C 7.726562 -8.484375 7.679688 -8.28125 7.640625 -8.125 L 6.96875 -8.125 L 6.21875 -10.375 C 6.082031 -10.4375 5.882812 -10.492188 5.625 -10.546875 C 5.375 -10.609375 5.109375 -10.640625 4.828125 -10.640625 C 4.367188 -10.640625 3.976562 -10.515625 3.65625 -10.265625 C 3.34375 -10.023438 3.1875 -9.675781 3.1875 -9.21875 C 3.1875 -8.800781 3.316406 -8.445312 3.578125 -8.15625 C 3.847656 -7.863281 4.175781 -7.597656 4.5625 -7.359375 C 4.957031 -7.117188 5.390625 -6.878906 5.859375 -6.640625 C 6.328125 -6.410156 6.753906 -6.140625 7.140625 -5.828125 C 7.535156 -5.523438 7.863281 -5.164062 8.125 -4.75 C 8.394531 -4.34375 8.53125 -3.835938 8.53125 -3.234375 C 8.53125 -2.140625 8.160156 -1.289062 7.421875 -0.6875 C 6.679688 -0.09375 5.59375 0.203125 4.15625 0.203125 C 3.800781 0.203125 3.445312 0.175781 3.09375 0.125 C 2.738281 0.0820312 2.398438 0.0234375 2.078125 -0.046875 C 1.765625 -0.128906 1.484375 -0.210938 1.234375 -0.296875 C 0.992188 -0.378906 0.8125 -0.472656 0.6875 -0.578125 C 0.695312 -0.828125 0.722656 -1.097656 0.765625 -1.390625 C 0.816406 -1.679688 0.863281 -1.972656 0.90625 -2.265625 C 0.957031 -2.554688 1.007812 -2.832031 1.0625 -3.09375 C 1.125 -3.351562 1.179688 -3.582031 1.234375 -3.78125 L 1.90625 -3.78125 Z M 2.578125 -1.359375 "/></g></g></g><g fill="#5e17eb" fill-opacity="1"><g transform="translate(231.097416, 303.925811)"><g><path d="M 8.296875 0 L 2.640625 0 L 2.640625 -0.625 C 2.859375 -0.707031 3.109375 -0.796875 3.390625 -0.890625 C 3.671875 -0.984375 3.953125 -1.050781 4.234375 -1.09375 L 4.234375 -10.4375 L 2.328125 -10.4375 L 1.28125 -7.625 L 0.609375 -7.625 C 0.566406 -7.84375 0.519531 -8.117188 0.46875 -8.453125 C 0.425781 -8.796875 0.390625 -9.148438 0.359375 -9.515625 C 0.328125 -9.878906 0.300781 -10.238281 0.28125 -10.59375 C 0.257812 -10.945312 0.25 -11.25 0.25 -11.5 L 10.71875 -11.5 C 10.71875 -11.238281 10.707031 -10.929688 10.6875 -10.578125 C 10.664062 -10.234375 10.632812 -9.878906 10.59375 -9.515625 C 10.5625 -9.148438 10.523438 -8.800781 10.484375 -8.46875 C 10.441406 -8.132812 10.398438 -7.851562 10.359375 -7.625 L 9.671875 -7.625 L 8.609375 -10.4375 L 6.703125 -10.4375 L 6.703125 -1.09375 C 6.992188 -1.039062 7.273438 -0.972656 7.546875 -0.890625 C 7.828125 -0.816406 8.078125 -0.726562 8.296875 -0.625 Z M 8.296875 0 "/></g></g></g><g fill="#5e17eb" fill-opacity="1"><g transform="translate(250.063265, 303.925811)"><g><path d="M 8.96875 -11.5 C 8.945312 -11.007812 8.910156 -10.5 8.859375 -9.96875 C 8.804688 -9.445312 8.734375 -8.957031 8.640625 -8.5 L 7.96875 -8.5 L 7.21875 -10.4375 L 4.140625 -10.4375 L 4.140625 -6.40625 L 6.140625 -6.40625 L 6.875 -7.671875 L 7.390625 -7.671875 C 7.453125 -7.140625 7.484375 -6.539062 7.484375 -5.875 C 7.484375 -5.21875 7.453125 -4.609375 7.390625 -4.046875 L 6.875 -4.046875 L 6.140625 -5.34375 L 4.140625 -5.34375 L 4.140625 -1.0625 L 7.34375 -1.0625 L 8.21875 -3.15625 L 8.890625 -3.15625 C 8.929688 -2.945312 8.972656 -2.710938 9.015625 -2.453125 C 9.066406 -2.191406 9.101562 -1.921875 9.125 -1.640625 C 9.15625 -1.359375 9.175781 -1.070312 9.1875 -0.78125 C 9.207031 -0.5 9.21875 -0.238281 9.21875 0 L 0.328125 0 L 0.328125 -0.625 C 0.515625 -0.71875 0.722656 -0.804688 0.953125 -0.890625 C 1.179688 -0.984375 1.421875 -1.050781 1.671875 -1.09375 L 1.671875 -10.40625 C 1.453125 -10.445312 1.21875 -10.507812 0.96875 -10.59375 C 0.726562 -10.675781 0.515625 -10.769531 0.328125 -10.875 L 0.328125 -11.5 Z M 8.96875 -11.5 "/></g></g></g><g fill="#5e17eb" fill-opacity="1"><g transform="translate(267.99371, 303.925811)"><g><path d="M 4.140625 -1.09375 C 4.390625 -1.039062 4.613281 -0.96875 4.8125 -0.875 C 5.007812 -0.789062 5.203125 -0.707031 5.390625 -0.625 L 5.390625 0 L 0.328125 0 L 0.328125 -0.625 C 0.566406 -0.757812 0.796875 -0.859375 1.015625 -0.921875 C 1.234375 -0.992188 1.453125 -1.050781 1.671875 -1.09375 L 1.671875 -10.40625 C 1.128906 -10.519531 0.679688 -10.675781 0.328125 -10.875 L 0.328125 -11.5 L 2.078125 -11.5 C 2.296875 -11.5 2.539062 -11.503906 2.8125 -11.515625 C 3.09375 -11.535156 3.382812 -11.550781 3.6875 -11.5625 C 4 -11.582031 4.3125 -11.597656 4.625 -11.609375 C 4.945312 -11.628906 5.257812 -11.640625 5.5625 -11.640625 C 6.15625 -11.640625 6.707031 -11.570312 7.21875 -11.4375 C 7.726562 -11.300781 8.164062 -11.09375 8.53125 -10.8125 C 8.90625 -10.539062 9.191406 -10.195312 9.390625 -9.78125 C 9.597656 -9.375 9.703125 -8.894531 9.703125 -8.34375 C 9.703125 -7.5625 9.507812 -6.914062 9.125 -6.40625 C 8.738281 -5.90625 8.210938 -5.53125 7.546875 -5.28125 C 7.984375 -4.582031 8.445312 -3.875 8.9375 -3.15625 C 9.4375 -2.445312 9.957031 -1.753906 10.5 -1.078125 L 11.296875 -0.5625 L 11.296875 0 L 8.546875 0 L 7.84375 -0.546875 C 7.332031 -1.148438 6.882812 -1.847656 6.5 -2.640625 C 6.113281 -3.429688 5.769531 -4.210938 5.46875 -4.984375 L 4.140625 -4.984375 Z M 4.96875 -10.5625 C 4.625 -10.5625 4.347656 -10.53125 4.140625 -10.46875 L 4.140625 -5.890625 L 5.109375 -5.890625 C 5.671875 -5.890625 6.148438 -6.085938 6.546875 -6.484375 C 6.941406 -6.878906 7.140625 -7.472656 7.140625 -8.265625 C 7.140625 -8.671875 7.082031 -9.019531 6.96875 -9.3125 C 6.863281 -9.601562 6.710938 -9.84375 6.515625 -10.03125 C 6.316406 -10.21875 6.082031 -10.351562 5.8125 -10.4375 C 5.550781 -10.519531 5.269531 -10.5625 4.96875 -10.5625 Z M 4.96875 -10.5625 "/></g></g></g><g fill="#5e17eb" fill-opacity="1"><g transform="translate(287.4526, 303.925811)"><g><path d="M 2.578125 -1.359375 C 2.703125 -1.242188 2.875 -1.132812 3.09375 -1.03125 C 3.3125 -0.925781 3.601562 -0.875 3.96875 -0.875 C 4.5625 -0.875 5.054688 -1.03125 5.453125 -1.34375 C 5.859375 -1.65625 6.0625 -2.085938 6.0625 -2.640625 C 6.0625 -3.046875 5.929688 -3.382812 5.671875 -3.65625 C 5.421875 -3.9375 5.097656 -4.191406 4.703125 -4.421875 C 4.304688 -4.648438 3.882812 -4.875 3.4375 -5.09375 C 2.988281 -5.320312 2.566406 -5.585938 2.171875 -5.890625 C 1.773438 -6.203125 1.445312 -6.566406 1.1875 -6.984375 C 0.9375 -7.410156 0.8125 -7.9375 0.8125 -8.5625 C 0.8125 -9.101562 0.90625 -9.566406 1.09375 -9.953125 C 1.289062 -10.347656 1.5625 -10.675781 1.90625 -10.9375 C 2.257812 -11.195312 2.671875 -11.390625 3.140625 -11.515625 C 3.609375 -11.640625 4.117188 -11.703125 4.671875 -11.703125 C 5.335938 -11.703125 5.957031 -11.65625 6.53125 -11.5625 C 7.101562 -11.46875 7.625 -11.320312 8.09375 -11.125 C 8.082031 -10.90625 8.0625 -10.648438 8.03125 -10.359375 C 8 -10.078125 7.960938 -9.796875 7.921875 -9.515625 C 7.878906 -9.242188 7.832031 -8.984375 7.78125 -8.734375 C 7.726562 -8.484375 7.679688 -8.28125 7.640625 -8.125 L 6.96875 -8.125 L 6.21875 -10.375 C 6.082031 -10.4375 5.882812 -10.492188 5.625 -10.546875 C 5.375 -10.609375 5.109375 -10.640625 4.828125 -10.640625 C 4.367188 -10.640625 3.976562 -10.515625 3.65625 -10.265625 C 3.34375 -10.023438 3.1875 -9.675781 3.1875 -9.21875 C 3.1875 -8.800781 3.316406 -8.445312 3.578125 -8.15625 C 3.847656 -7.863281 4.175781 -7.597656 4.5625 -7.359375 C 4.957031 -7.117188 5.390625 -6.878906 5.859375 -6.640625 C 6.328125 -6.410156 6.753906 -6.140625 7.140625 -5.828125 C 7.535156 -5.523438 7.863281 -5.164062 8.125 -4.75 C 8.394531 -4.34375 8.53125 -3.835938 8.53125 -3.234375 C 8.53125 -2.140625 8.160156 -1.289062 7.421875 -0.6875 C 6.679688 -0.09375 5.59375 0.203125 4.15625 0.203125 C 3.800781 0.203125 3.445312 0.175781 3.09375 0.125 C 2.738281 0.0820312 2.398438 0.0234375 2.078125 -0.046875 C 1.765625 -0.128906 1.484375 -0.210938 1.234375 -0.296875 C 0.992188 -0.378906 0.8125 -0.472656 0.6875 -0.578125 C 0.695312 -0.828125 0.722656 -1.097656 0.765625 -1.390625 C 0.816406 -1.679688 0.863281 -1.972656 0.90625 -2.265625 C 0.957031 -2.554688 1.007812 -2.832031 1.0625 -3.09375 C 1.125 -3.351562 1.179688 -3.582031 1.234375 -3.78125 L 1.90625 -3.78125 Z M 2.578125 -1.359375 "/></g></g></g></svg>